<?xml version="1.0" encoding="UTF-8" standalone="no"?>
<!-- Created with Inkscape (http://www.inkscape.org/) -->

<svg
   xmlns:dc="http://purl.org/dc/elements/1.1/"
   xmlns:cc="http://creativecommons.org/ns#"
   xmlns:rdf="http://www.w3.org/1999/02/22-rdf-syntax-ns#"
   xmlns:svg="http://www.w3.org/2000/svg"
   xmlns="http://www.w3.org/2000/svg"
   xmlns:sodipodi="http://sodipodi.sourceforge.net/DTD/sodipodi-0.dtd"
   xmlns:inkscape="http://www.inkscape.org/namespaces/inkscape"
   width="11in"
   height="8.5in"
   viewBox="0 0 990 765"
   id="svg2"
   version="1.1"
   inkscape:version="0.91 r13725"
   sodipodi:docname="template.svg">
  <defs
     id="defs4">
    <filter
       style="color-interpolation-filters:sRGB;"
       inkscape:label="Invert"
       id="filter4507">
      <feColorMatrix
         type="matrix"
         values="-1 0 0 0 1 0 -1 0 0 1 0 0 -1 0 1 0 0 0 1 0 "
         result="color1"
         id="feColorMatrix4509"
         in="SourceGraphic" />
      <feComposite
         id="feComposite4523"
         in="color1"
         in2="SourceAlpha"
         operator="in" />
    </filter>
  </defs>
  <sodipodi:namedview
     id="base"
     pagecolor="#ffffff"
     bordercolor="#666666"
     borderopacity="1.0"
     inkscape:pageopacity="0"
     inkscape:pageshadow="2"
     inkscape:zoom="1.0815017"
     inkscape:cx="467.53505"
     inkscape:cy="49.55803"
     inkscape:document-units="in"
     inkscape:current-layer="layer3"
     showgrid="true"
     units="in"
     showguides="true"
     inkscape:guide-bbox="true"
     inkscape:window-width="1920"
     inkscape:window-height="1056"
     inkscape:window-x="0"
     inkscape:window-y="24"
     inkscape:window-maximized="1"
     inkscape:snap-bbox="true"
     inkscape:bbox-nodes="true"
     inkscape:showpageshadow="false">
    <inkscape:grid
       type="xygrid"
       id="grid4136"
       units="in"
       spacingx="2.8125"
       spacingy="2.8125"
       empspacing="8" />
    <sodipodi:guide
       position="-5.625,33.75"
       orientation="0,1"
       id="guide4140" />
    <sodipodi:guide
       position="-5.625,340.3125"
       orientation="0,1"
       id="guide4142" />
    <sodipodi:guide
       position="28.125,393.75"
       orientation="1,0"
       id="guide4166" />
    <sodipodi:guide
       position="928.125,388.125"
       orientation="1,0"
       id="guide4168" />
    <sodipodi:guide
       position="-5.625,112.5"
       orientation="0,1"
       id="guide4172" />
    <sodipodi:guide
       position="-5.625,191.25"
       orientation="0,1"
       id="guide4174" />
    <sodipodi:guide
       position="-5.625,261.5625"
       orientation="0,1"
       id="guide4178" />
    <sodipodi:guide
       position="-5.625,270"
       orientation="0,1"
       id="guide4180" />
  </sodipodi:namedview>
  <metadata
     id="metadata7">
    <rdf:RDF>
      <cc:Work
         rdf:about="">
        <dc:format>image/svg+xml</dc:format>
        <dc:type
           rdf:resource="http://purl.org/dc/dcmitype/StillImage" />
        <dc:title></dc:title>
      </cc:Work>
    </rdf:RDF>
  </metadata>
  <g
     inkscape:label="guides"
     inkscape:groupmode="layer"
     id="layer1"
     transform="translate(0,-287.3622)"
     sodipodi:insensitive="true">
    <rect
       style="color:#000000;clip-rule:nonzero;display:inline;overflow:visible;visibility:visible;opacity:1;isolation:auto;mix-blend-mode:normal;color-interpolation:sRGB;color-interpolation-filters:linearRGB;solid-color:#000000;solid-opacity:1;fill:none;fill-opacity:1;fill-rule:evenodd;stroke:#000000;stroke-width:0.625;stroke-linecap:butt;stroke-linejoin:round;stroke-miterlimit:4;stroke-dasharray:0.625, 2.5;stroke-dashoffset:0;stroke-opacity:1;color-rendering:auto;image-rendering:auto;shape-rendering:auto;text-rendering:auto;enable-background:accumulate"
       id="rect4138"
       width="956.25"
       height="382.5"
       x="0"
       y="669.86218" />
    <path
       style="fill:none;fill-rule:evenodd;stroke:#000000;stroke-width:1px;stroke-linecap:butt;stroke-linejoin:miter;stroke-opacity:1"
       d="m 0,669.8622 2.8125,-16.92 950.625,0 2.8125,16.92 16.92,2.8125 0,376.875 -16.92,2.8125 -2.8125,16.92 -950.625,0 -2.8125,-16.92 -16.92,-2.8125 0,-376.875 z"
       id="path4337"
       inkscape:connector-curvature="0"
       sodipodi:nodetypes="ccccccccccccc" />
  </g>
  <g
     inkscape:groupmode="layer"
     id="layer2"
     inkscape:label="tracks"
     style="display:inline;opacity:0.97"
     sodipodi:insensitive="true">
    <g
       id="g4200"
       style="fill:none;stroke:#000000;stroke-width:0.625;stroke-miterlimit:4;stroke-dasharray:none;stroke-opacity:1">
      <rect
         y="686.25"
         x="0"
         height="45"
         width="956.25"
         id="rect4182"
         style="color:#000000;clip-rule:nonzero;display:inline;overflow:visible;visibility:visible;opacity:1;isolation:auto;mix-blend-mode:normal;color-interpolation:sRGB;color-interpolation-filters:linearRGB;solid-color:#000000;solid-opacity:1;fill:none;fill-opacity:1;fill-rule:evenodd;stroke:#000000;stroke-width:0.625;stroke-linecap:butt;stroke-linejoin:round;stroke-miterlimit:4;stroke-dasharray:none;stroke-dashoffset:0;stroke-opacity:1;color-rendering:auto;image-rendering:auto;shape-rendering:auto;text-rendering:auto;enable-background:accumulate" />
      <rect
         y="660.9375"
         x="28.125"
         height="22.5"
         width="106.875"
         id="rect4184"
         style="color:#000000;clip-rule:nonzero;display:inline;overflow:visible;visibility:visible;opacity:1;isolation:auto;mix-blend-mode:normal;color-interpolation:sRGB;color-interpolation-filters:linearRGB;solid-color:#000000;solid-opacity:1;fill:none;fill-opacity:1;fill-rule:evenodd;stroke:#000000;stroke-width:0.625;stroke-linecap:butt;stroke-linejoin:round;stroke-miterlimit:4;stroke-dasharray:none;stroke-dashoffset:0;stroke-opacity:1;color-rendering:auto;image-rendering:auto;shape-rendering:auto;text-rendering:auto;enable-background:accumulate" />
      <rect
         style="color:#000000;clip-rule:nonzero;display:inline;overflow:visible;visibility:visible;opacity:1;isolation:auto;mix-blend-mode:normal;color-interpolation:sRGB;color-interpolation-filters:linearRGB;solid-color:#000000;solid-opacity:1;fill:none;fill-opacity:1;fill-rule:evenodd;stroke:#000000;stroke-width:0.625;stroke-linecap:butt;stroke-linejoin:round;stroke-miterlimit:4;stroke-dasharray:none;stroke-dashoffset:0;stroke-opacity:1;color-rendering:auto;image-rendering:auto;shape-rendering:auto;text-rendering:auto;enable-background:accumulate"
         id="rect4186"
         width="106.875"
         height="22.5"
         x="140.625"
         y="660.9375" />
      <rect
         style="color:#000000;clip-rule:nonzero;display:inline;overflow:visible;visibility:visible;opacity:1;isolation:auto;mix-blend-mode:normal;color-interpolation:sRGB;color-interpolation-filters:linearRGB;solid-color:#000000;solid-opacity:1;fill:none;fill-opacity:1;fill-rule:evenodd;stroke:#000000;stroke-width:0.625;stroke-linecap:butt;stroke-linejoin:round;stroke-miterlimit:4;stroke-dasharray:none;stroke-dashoffset:0;stroke-opacity:1;color-rendering:auto;image-rendering:auto;shape-rendering:auto;text-rendering:auto;enable-background:accumulate"
         id="rect4188"
         width="106.875"
         height="22.5"
         x="253.125"
         y="660.9375" />
      <rect
         y="660.9375"
         x="365.625"
         height="22.5"
         width="106.875"
         id="rect4190"
         style="color:#000000;clip-rule:nonzero;display:inline;overflow:visible;visibility:visible;opacity:1;isolation:auto;mix-blend-mode:normal;color-interpolation:sRGB;color-interpolation-filters:linearRGB;solid-color:#000000;solid-opacity:1;fill:none;fill-opacity:1;fill-rule:evenodd;stroke:#000000;stroke-width:0.625;stroke-linecap:butt;stroke-linejoin:round;stroke-miterlimit:4;stroke-dasharray:none;stroke-dashoffset:0;stroke-opacity:1;color-rendering:auto;image-rendering:auto;shape-rendering:auto;text-rendering:auto;enable-background:accumulate" />
      <rect
         style="color:#000000;clip-rule:nonzero;display:inline;overflow:visible;visibility:visible;opacity:1;isolation:auto;mix-blend-mode:normal;color-interpolation:sRGB;color-interpolation-filters:linearRGB;solid-color:#000000;solid-opacity:1;fill:none;fill-opacity:1;fill-rule:evenodd;stroke:#000000;stroke-width:0.625;stroke-linecap:butt;stroke-linejoin:round;stroke-miterlimit:4;stroke-dasharray:none;stroke-dashoffset:0;stroke-opacity:1;color-rendering:auto;image-rendering:auto;shape-rendering:auto;text-rendering:auto;enable-background:accumulate"
         id="rect4192"
         width="106.875"
         height="22.5"
         x="478.125"
         y="660.9375" />
      <rect
         y="660.9375"
         x="590.625"
         height="22.5"
         width="106.875"
         id="rect4194"
         style="color:#000000;clip-rule:nonzero;display:inline;overflow:visible;visibility:visible;opacity:1;isolation:auto;mix-blend-mode:normal;color-interpolation:sRGB;color-interpolation-filters:linearRGB;solid-color:#000000;solid-opacity:1;fill:none;fill-opacity:1;fill-rule:evenodd;stroke:#000000;stroke-width:0.625;stroke-linecap:butt;stroke-linejoin:round;stroke-miterlimit:4;stroke-dasharray:none;stroke-dashoffset:0;stroke-opacity:1;color-rendering:auto;image-rendering:auto;shape-rendering:auto;text-rendering:auto;enable-background:accumulate" />
      <rect
         y="660.9375"
         x="703.125"
         height="22.5"
         width="106.875"
         id="rect4196"
         style="color:#000000;clip-rule:nonzero;display:inline;overflow:visible;visibility:visible;opacity:1;isolation:auto;mix-blend-mode:normal;color-interpolation:sRGB;color-interpolation-filters:linearRGB;solid-color:#000000;solid-opacity:1;fill:none;fill-opacity:1;fill-rule:evenodd;stroke:#000000;stroke-width:0.625;stroke-linecap:butt;stroke-linejoin:round;stroke-miterlimit:4;stroke-dasharray:none;stroke-dashoffset:0;stroke-opacity:1;color-rendering:auto;image-rendering:auto;shape-rendering:auto;text-rendering:auto;enable-background:accumulate" />
      <rect
         style="color:#000000;clip-rule:nonzero;display:inline;overflow:visible;visibility:visible;opacity:1;isolation:auto;mix-blend-mode:normal;color-interpolation:sRGB;color-interpolation-filters:linearRGB;solid-color:#000000;solid-opacity:1;fill:none;fill-opacity:1;fill-rule:evenodd;stroke:#000000;stroke-width:0.625;stroke-linecap:butt;stroke-linejoin:round;stroke-miterlimit:4;stroke-dasharray:none;stroke-dashoffset:0;stroke-opacity:1;color-rendering:auto;image-rendering:auto;shape-rendering:auto;text-rendering:auto;enable-background:accumulate"
         id="rect4198"
         width="106.875"
         height="22.5"
         x="815.625"
         y="660.9375" />
    </g>
    <g
       id="g4211"
       transform="translate(0,-157.5)"
       style="fill:none;stroke:#000000;stroke-width:0.625;stroke-miterlimit:4;stroke-dasharray:none;stroke-opacity:1">
      <rect
         style="color:#000000;clip-rule:nonzero;display:inline;overflow:visible;visibility:visible;opacity:1;isolation:auto;mix-blend-mode:normal;color-interpolation:sRGB;color-interpolation-filters:linearRGB;solid-color:#000000;solid-opacity:1;fill:none;fill-opacity:1;fill-rule:evenodd;stroke:#000000;stroke-width:0.625;stroke-linecap:butt;stroke-linejoin:round;stroke-miterlimit:4;stroke-dasharray:none;stroke-dashoffset:0;stroke-opacity:1;color-rendering:auto;image-rendering:auto;shape-rendering:auto;text-rendering:auto;enable-background:accumulate"
         id="rect4213"
         width="956.25"
         height="45"
         x="0"
         y="686.25" />
      <rect
         style="color:#000000;clip-rule:nonzero;display:inline;overflow:visible;visibility:visible;opacity:1;isolation:auto;mix-blend-mode:normal;color-interpolation:sRGB;color-interpolation-filters:linearRGB;solid-color:#000000;solid-opacity:1;fill:none;fill-opacity:1;fill-rule:evenodd;stroke:#000000;stroke-width:0.625;stroke-linecap:butt;stroke-linejoin:round;stroke-miterlimit:4;stroke-dasharray:none;stroke-dashoffset:0;stroke-opacity:1;color-rendering:auto;image-rendering:auto;shape-rendering:auto;text-rendering:auto;enable-background:accumulate"
         id="rect4215"
         width="106.875"
         height="22.5"
         x="28.125"
         y="660.9375" />
      <rect
         y="660.9375"
         x="140.625"
         height="22.5"
         width="106.875"
         id="rect4217"
         style="color:#000000;clip-rule:nonzero;display:inline;overflow:visible;visibility:visible;opacity:1;isolation:auto;mix-blend-mode:normal;color-interpolation:sRGB;color-interpolation-filters:linearRGB;solid-color:#000000;solid-opacity:1;fill:none;fill-opacity:1;fill-rule:evenodd;stroke:#000000;stroke-width:0.625;stroke-linecap:butt;stroke-linejoin:round;stroke-miterlimit:4;stroke-dasharray:none;stroke-dashoffset:0;stroke-opacity:1;color-rendering:auto;image-rendering:auto;shape-rendering:auto;text-rendering:auto;enable-background:accumulate" />
      <rect
         y="660.9375"
         x="253.125"
         height="22.5"
         width="106.875"
         id="rect4219"
         style="color:#000000;clip-rule:nonzero;display:inline;overflow:visible;visibility:visible;opacity:1;isolation:auto;mix-blend-mode:normal;color-interpolation:sRGB;color-interpolation-filters:linearRGB;solid-color:#000000;solid-opacity:1;fill:none;fill-opacity:1;fill-rule:evenodd;stroke:#000000;stroke-width:0.625;stroke-linecap:butt;stroke-linejoin:round;stroke-miterlimit:4;stroke-dasharray:none;stroke-dashoffset:0;stroke-opacity:1;color-rendering:auto;image-rendering:auto;shape-rendering:auto;text-rendering:auto;enable-background:accumulate" />
      <rect
         style="color:#000000;clip-rule:nonzero;display:inline;overflow:visible;visibility:visible;opacity:1;isolation:auto;mix-blend-mode:normal;color-interpolation:sRGB;color-interpolation-filters:linearRGB;solid-color:#000000;solid-opacity:1;fill:none;fill-opacity:1;fill-rule:evenodd;stroke:#000000;stroke-width:0.625;stroke-linecap:butt;stroke-linejoin:round;stroke-miterlimit:4;stroke-dasharray:none;stroke-dashoffset:0;stroke-opacity:1;color-rendering:auto;image-rendering:auto;shape-rendering:auto;text-rendering:auto;enable-background:accumulate"
         id="rect4221"
         width="106.875"
         height="22.5"
         x="365.625"
         y="660.9375" />
      <rect
         y="660.9375"
         x="478.125"
         height="22.5"
         width="106.875"
         id="rect4223"
         style="color:#000000;clip-rule:nonzero;display:inline;overflow:visible;visibility:visible;opacity:1;isolation:auto;mix-blend-mode:normal;color-interpolation:sRGB;color-interpolation-filters:linearRGB;solid-color:#000000;solid-opacity:1;fill:none;fill-opacity:1;fill-rule:evenodd;stroke:#000000;stroke-width:0.625;stroke-linecap:butt;stroke-linejoin:round;stroke-miterlimit:4;stroke-dasharray:none;stroke-dashoffset:0;stroke-opacity:1;color-rendering:auto;image-rendering:auto;shape-rendering:auto;text-rendering:auto;enable-background:accumulate" />
      <rect
         style="color:#000000;clip-rule:nonzero;display:inline;overflow:visible;visibility:visible;opacity:1;isolation:auto;mix-blend-mode:normal;color-interpolation:sRGB;color-interpolation-filters:linearRGB;solid-color:#000000;solid-opacity:1;fill:none;fill-opacity:1;fill-rule:evenodd;stroke:#000000;stroke-width:0.625;stroke-linecap:butt;stroke-linejoin:round;stroke-miterlimit:4;stroke-dasharray:none;stroke-dashoffset:0;stroke-opacity:1;color-rendering:auto;image-rendering:auto;shape-rendering:auto;text-rendering:auto;enable-background:accumulate"
         id="rect4225"
         width="106.875"
         height="22.5"
         x="590.625"
         y="660.9375" />
      <rect
         style="color:#000000;clip-rule:nonzero;display:inline;overflow:visible;visibility:visible;opacity:1;isolation:auto;mix-blend-mode:normal;color-interpolation:sRGB;color-interpolation-filters:linearRGB;solid-color:#000000;solid-opacity:1;fill:none;fill-opacity:1;fill-rule:evenodd;stroke:#000000;stroke-width:0.625;stroke-linecap:butt;stroke-linejoin:round;stroke-miterlimit:4;stroke-dasharray:none;stroke-dashoffset:0;stroke-opacity:1;color-rendering:auto;image-rendering:auto;shape-rendering:auto;text-rendering:auto;enable-background:accumulate"
         id="rect4227"
         width="106.875"
         height="22.5"
         x="703.125"
         y="660.9375" />
      <rect
         y="660.9375"
         x="815.625"
         height="22.5"
         width="106.875"
         id="rect4229"
         style="color:#000000;clip-rule:nonzero;display:inline;overflow:visible;visibility:visible;opacity:1;isolation:auto;mix-blend-mode:normal;color-interpolation:sRGB;color-interpolation-filters:linearRGB;solid-color:#000000;solid-opacity:1;fill:none;fill-opacity:1;fill-rule:evenodd;stroke:#000000;stroke-width:0.625;stroke-linecap:butt;stroke-linejoin:round;stroke-miterlimit:4;stroke-dasharray:none;stroke-dashoffset:0;stroke-opacity:1;color-rendering:auto;image-rendering:auto;shape-rendering:auto;text-rendering:auto;enable-background:accumulate" />
    </g>
    <g
       transform="translate(0,-78.75)"
       id="g4231"
       style="fill:none;stroke:#000000;stroke-width:0.625;stroke-miterlimit:4;stroke-dasharray:none;stroke-opacity:1">
      <rect
         y="686.25"
         x="0"
         height="45"
         width="956.25"
         id="rect4233"
         style="color:#000000;clip-rule:nonzero;display:inline;overflow:visible;visibility:visible;opacity:1;isolation:auto;mix-blend-mode:normal;color-interpolation:sRGB;color-interpolation-filters:linearRGB;solid-color:#000000;solid-opacity:1;fill:none;fill-opacity:1;fill-rule:evenodd;stroke:#000000;stroke-width:0.625;stroke-linecap:butt;stroke-linejoin:round;stroke-miterlimit:4;stroke-dasharray:none;stroke-dashoffset:0;stroke-opacity:1;color-rendering:auto;image-rendering:auto;shape-rendering:auto;text-rendering:auto;enable-background:accumulate" />
      <rect
         y="660.9375"
         x="28.125"
         height="22.5"
         width="106.875"
         id="rect4235"
         style="color:#000000;clip-rule:nonzero;display:inline;overflow:visible;visibility:visible;opacity:1;isolation:auto;mix-blend-mode:normal;color-interpolation:sRGB;color-interpolation-filters:linearRGB;solid-color:#000000;solid-opacity:1;fill:none;fill-opacity:1;fill-rule:evenodd;stroke:#000000;stroke-width:0.625;stroke-linecap:butt;stroke-linejoin:round;stroke-miterlimit:4;stroke-dasharray:none;stroke-dashoffset:0;stroke-opacity:1;color-rendering:auto;image-rendering:auto;shape-rendering:auto;text-rendering:auto;enable-background:accumulate" />
      <rect
         style="color:#000000;clip-rule:nonzero;display:inline;overflow:visible;visibility:visible;opacity:1;isolation:auto;mix-blend-mode:normal;color-interpolation:sRGB;color-interpolation-filters:linearRGB;solid-color:#000000;solid-opacity:1;fill:none;fill-opacity:1;fill-rule:evenodd;stroke:#000000;stroke-width:0.625;stroke-linecap:butt;stroke-linejoin:round;stroke-miterlimit:4;stroke-dasharray:none;stroke-dashoffset:0;stroke-opacity:1;color-rendering:auto;image-rendering:auto;shape-rendering:auto;text-rendering:auto;enable-background:accumulate"
         id="rect4237"
         width="106.875"
         height="22.5"
         x="140.625"
         y="660.9375" />
      <rect
         style="color:#000000;clip-rule:nonzero;display:inline;overflow:visible;visibility:visible;opacity:1;isolation:auto;mix-blend-mode:normal;color-interpolation:sRGB;color-interpolation-filters:linearRGB;solid-color:#000000;solid-opacity:1;fill:none;fill-opacity:1;fill-rule:evenodd;stroke:#000000;stroke-width:0.625;stroke-linecap:butt;stroke-linejoin:round;stroke-miterlimit:4;stroke-dasharray:none;stroke-dashoffset:0;stroke-opacity:1;color-rendering:auto;image-rendering:auto;shape-rendering:auto;text-rendering:auto;enable-background:accumulate"
         id="rect4239"
         width="106.875"
         height="22.5"
         x="253.125"
         y="660.9375" />
      <rect
         y="660.9375"
         x="365.625"
         height="22.5"
         width="106.875"
         id="rect4241"
         style="color:#000000;clip-rule:nonzero;display:inline;overflow:visible;visibility:visible;opacity:1;isolation:auto;mix-blend-mode:normal;color-interpolation:sRGB;color-interpolation-filters:linearRGB;solid-color:#000000;solid-opacity:1;fill:none;fill-opacity:1;fill-rule:evenodd;stroke:#000000;stroke-width:0.625;stroke-linecap:butt;stroke-linejoin:round;stroke-miterlimit:4;stroke-dasharray:none;stroke-dashoffset:0;stroke-opacity:1;color-rendering:auto;image-rendering:auto;shape-rendering:auto;text-rendering:auto;enable-background:accumulate" />
      <rect
         style="color:#000000;clip-rule:nonzero;display:inline;overflow:visible;visibility:visible;opacity:1;isolation:auto;mix-blend-mode:normal;color-interpolation:sRGB;color-interpolation-filters:linearRGB;solid-color:#000000;solid-opacity:1;fill:none;fill-opacity:1;fill-rule:evenodd;stroke:#000000;stroke-width:0.625;stroke-linecap:butt;stroke-linejoin:round;stroke-miterlimit:4;stroke-dasharray:none;stroke-dashoffset:0;stroke-opacity:1;color-rendering:auto;image-rendering:auto;shape-rendering:auto;text-rendering:auto;enable-background:accumulate"
         id="rect4243"
         width="106.875"
         height="22.5"
         x="478.125"
         y="660.9375" />
      <rect
         y="660.9375"
         x="590.625"
         height="22.5"
         width="106.875"
         id="rect4245"
         style="color:#000000;clip-rule:nonzero;display:inline;overflow:visible;visibility:visible;opacity:1;isolation:auto;mix-blend-mode:normal;color-interpolation:sRGB;color-interpolation-filters:linearRGB;solid-color:#000000;solid-opacity:1;fill:none;fill-opacity:1;fill-rule:evenodd;stroke:#000000;stroke-width:0.625;stroke-linecap:butt;stroke-linejoin:round;stroke-miterlimit:4;stroke-dasharray:none;stroke-dashoffset:0;stroke-opacity:1;color-rendering:auto;image-rendering:auto;shape-rendering:auto;text-rendering:auto;enable-background:accumulate" />
      <rect
         y="660.9375"
         x="703.125"
         height="22.5"
         width="106.875"
         id="rect4247"
         style="color:#000000;clip-rule:nonzero;display:inline;overflow:visible;visibility:visible;opacity:1;isolation:auto;mix-blend-mode:normal;color-interpolation:sRGB;color-interpolation-filters:linearRGB;solid-color:#000000;solid-opacity:1;fill:none;fill-opacity:1;fill-rule:evenodd;stroke:#000000;stroke-width:0.625;stroke-linecap:butt;stroke-linejoin:round;stroke-miterlimit:4;stroke-dasharray:none;stroke-dashoffset:0;stroke-opacity:1;color-rendering:auto;image-rendering:auto;shape-rendering:auto;text-rendering:auto;enable-background:accumulate" />
      <rect
         style="color:#000000;clip-rule:nonzero;display:inline;overflow:visible;visibility:visible;opacity:1;isolation:auto;mix-blend-mode:normal;color-interpolation:sRGB;color-interpolation-filters:linearRGB;solid-color:#000000;solid-opacity:1;fill:none;fill-opacity:1;fill-rule:evenodd;stroke:#000000;stroke-width:0.625;stroke-linecap:butt;stroke-linejoin:round;stroke-miterlimit:4;stroke-dasharray:none;stroke-dashoffset:0;stroke-opacity:1;color-rendering:auto;image-rendering:auto;shape-rendering:auto;text-rendering:auto;enable-background:accumulate"
         id="rect4249"
         width="106.875"
         height="22.5"
         x="815.625"
         y="660.9375" />
    </g>
    <g
       transform="translate(0,-236.25)"
       id="g4271"
       style="fill:none;stroke:#000000;stroke-width:0.625;stroke-miterlimit:4;stroke-dasharray:none;stroke-opacity:1">
      <rect
         y="686.25"
         x="0"
         height="45"
         width="956.25"
         id="rect4273"
         style="color:#000000;clip-rule:nonzero;display:inline;overflow:visible;visibility:visible;opacity:1;isolation:auto;mix-blend-mode:normal;color-interpolation:sRGB;color-interpolation-filters:linearRGB;solid-color:#000000;solid-opacity:1;fill:none;fill-opacity:1;fill-rule:evenodd;stroke:#000000;stroke-width:0.625;stroke-linecap:butt;stroke-linejoin:round;stroke-miterlimit:4;stroke-dasharray:none;stroke-dashoffset:0;stroke-opacity:1;color-rendering:auto;image-rendering:auto;shape-rendering:auto;text-rendering:auto;enable-background:accumulate" />
      <rect
         y="660.9375"
         x="28.125"
         height="22.5"
         width="106.875"
         id="rect4275"
         style="color:#000000;clip-rule:nonzero;display:inline;overflow:visible;visibility:visible;opacity:1;isolation:auto;mix-blend-mode:normal;color-interpolation:sRGB;color-interpolation-filters:linearRGB;solid-color:#000000;solid-opacity:1;fill:none;fill-opacity:1;fill-rule:evenodd;stroke:#000000;stroke-width:0.625;stroke-linecap:butt;stroke-linejoin:round;stroke-miterlimit:4;stroke-dasharray:none;stroke-dashoffset:0;stroke-opacity:1;color-rendering:auto;image-rendering:auto;shape-rendering:auto;text-rendering:auto;enable-background:accumulate" />
      <rect
         style="color:#000000;clip-rule:nonzero;display:inline;overflow:visible;visibility:visible;opacity:1;isolation:auto;mix-blend-mode:normal;color-interpolation:sRGB;color-interpolation-filters:linearRGB;solid-color:#000000;solid-opacity:1;fill:none;fill-opacity:1;fill-rule:evenodd;stroke:#000000;stroke-width:0.625;stroke-linecap:butt;stroke-linejoin:round;stroke-miterlimit:4;stroke-dasharray:none;stroke-dashoffset:0;stroke-opacity:1;color-rendering:auto;image-rendering:auto;shape-rendering:auto;text-rendering:auto;enable-background:accumulate"
         id="rect4277"
         width="106.875"
         height="22.5"
         x="140.625"
         y="660.9375" />
      <rect
         style="color:#000000;clip-rule:nonzero;display:inline;overflow:visible;visibility:visible;opacity:1;isolation:auto;mix-blend-mode:normal;color-interpolation:sRGB;color-interpolation-filters:linearRGB;solid-color:#000000;solid-opacity:1;fill:none;fill-opacity:1;fill-rule:evenodd;stroke:#000000;stroke-width:0.625;stroke-linecap:butt;stroke-linejoin:round;stroke-miterlimit:4;stroke-dasharray:none;stroke-dashoffset:0;stroke-opacity:1;color-rendering:auto;image-rendering:auto;shape-rendering:auto;text-rendering:auto;enable-background:accumulate"
         id="rect4279"
         width="106.875"
         height="22.5"
         x="253.125"
         y="660.9375" />
      <rect
         y="660.9375"
         x="365.625"
         height="22.5"
         width="106.875"
         id="rect4281"
         style="color:#000000;clip-rule:nonzero;display:inline;overflow:visible;visibility:visible;opacity:1;isolation:auto;mix-blend-mode:normal;color-interpolation:sRGB;color-interpolation-filters:linearRGB;solid-color:#000000;solid-opacity:1;fill:none;fill-opacity:1;fill-rule:evenodd;stroke:#000000;stroke-width:0.625;stroke-linecap:butt;stroke-linejoin:round;stroke-miterlimit:4;stroke-dasharray:none;stroke-dashoffset:0;stroke-opacity:1;color-rendering:auto;image-rendering:auto;shape-rendering:auto;text-rendering:auto;enable-background:accumulate" />
      <rect
         style="color:#000000;clip-rule:nonzero;display:inline;overflow:visible;visibility:visible;opacity:1;isolation:auto;mix-blend-mode:normal;color-interpolation:sRGB;color-interpolation-filters:linearRGB;solid-color:#000000;solid-opacity:1;fill:none;fill-opacity:1;fill-rule:evenodd;stroke:#000000;stroke-width:0.625;stroke-linecap:butt;stroke-linejoin:round;stroke-miterlimit:4;stroke-dasharray:none;stroke-dashoffset:0;stroke-opacity:1;color-rendering:auto;image-rendering:auto;shape-rendering:auto;text-rendering:auto;enable-background:accumulate"
         id="rect4283"
         width="106.875"
         height="22.5"
         x="478.125"
         y="660.9375" />
      <rect
         y="660.9375"
         x="590.625"
         height="22.5"
         width="106.875"
         id="rect4285"
         style="color:#000000;clip-rule:nonzero;display:inline;overflow:visible;visibility:visible;opacity:1;isolation:auto;mix-blend-mode:normal;color-interpolation:sRGB;color-interpolation-filters:linearRGB;solid-color:#000000;solid-opacity:1;fill:none;fill-opacity:1;fill-rule:evenodd;stroke:#000000;stroke-width:0.625;stroke-linecap:butt;stroke-linejoin:round;stroke-miterlimit:4;stroke-dasharray:none;stroke-dashoffset:0;stroke-opacity:1;color-rendering:auto;image-rendering:auto;shape-rendering:auto;text-rendering:auto;enable-background:accumulate" />
      <rect
         y="660.9375"
         x="703.125"
         height="22.5"
         width="106.875"
         id="rect4287"
         style="color:#000000;clip-rule:nonzero;display:inline;overflow:visible;visibility:visible;opacity:1;isolation:auto;mix-blend-mode:normal;color-interpolation:sRGB;color-interpolation-filters:linearRGB;solid-color:#000000;solid-opacity:1;fill:none;fill-opacity:1;fill-rule:evenodd;stroke:#000000;stroke-width:0.625;stroke-linecap:butt;stroke-linejoin:round;stroke-miterlimit:4;stroke-dasharray:none;stroke-dashoffset:0;stroke-opacity:1;color-rendering:auto;image-rendering:auto;shape-rendering:auto;text-rendering:auto;enable-background:accumulate" />
      <rect
         style="color:#000000;clip-rule:nonzero;display:inline;overflow:visible;visibility:visible;opacity:1;isolation:auto;mix-blend-mode:normal;color-interpolation:sRGB;color-interpolation-filters:linearRGB;solid-color:#000000;solid-opacity:1;fill:none;fill-opacity:1;fill-rule:evenodd;stroke:#000000;stroke-width:0.625;stroke-linecap:butt;stroke-linejoin:round;stroke-miterlimit:4;stroke-dasharray:none;stroke-dashoffset:0;stroke-opacity:1;color-rendering:auto;image-rendering:auto;shape-rendering:auto;text-rendering:auto;enable-background:accumulate"
         id="rect4289"
         width="106.875"
         height="22.5"
         x="815.625"
         y="660.9375" />
    </g>
  </g>
  <g
     inkscape:groupmode="layer"
     id="layer3"
     inkscape:label="scale"
     style="display:inline">
    <path
       id="rect4333"
       style="color:#000000;clip-rule:nonzero;display:inline;overflow:visible;visibility:visible;opacity:1;isolation:auto;mix-blend-mode:normal;color-interpolation:sRGB;color-interpolation-filters:linearRGB;solid-color:#000000;solid-opacity:1;fill:#000000;fill-opacity:1;fill-rule:evenodd;stroke:none;stroke-width:1.25;stroke-linecap:butt;stroke-linejoin:round;stroke-miterlimit:4;stroke-dasharray:1.25, 1.25000000000000000;stroke-dashoffset:0;stroke-opacity:1;color-rendering:auto;image-rendering:auto;shape-rendering:auto;text-rendering:auto;enable-background:accumulate"
       d="m 815.62524,365.625 56.25,0 0,416.25 -56.25,0 z m -112.50012,0 56.25,0 0,416.25 -56.25,0 z m -112.50012,0 56.25,0 0,416.25 -56.25,0 z m -112.5,0 56.25,0 0,416.25 -56.25,0 z m -112.5,0 56.25,0 0,416.25 -56.25,0 z m -112.5,0 56.25,0 0,416.25 -56.25,0 z m -112.5,0 56.25,0 0,416.25 -56.25,0 z m -112.5,0 56.25,0 0,416.25 -56.25,0 z" />
    <path
       style="fill:#ffffff;fill-rule:evenodd;stroke:none;stroke-width:1px;stroke-linecap:butt;stroke-linejoin:miter;stroke-opacity:1;fill-opacity:1"
       d="M 28.125 424.1875 L 28.125 425.1875 L 84.375 425.1875 L 84.375 424.1875 L 28.125 424.1875 z M 140.625 424.1875 L 140.625 425.1875 L 196.875 425.1875 L 196.875 424.1875 L 140.625 424.1875 z M 253.125 424.1875 L 253.125 425.1875 L 309.375 425.1875 L 309.375 424.1875 L 253.125 424.1875 z M 365.625 424.1875 L 365.625 425.1875 L 421.875 425.1875 L 421.875 424.1875 L 365.625 424.1875 z M 478.125 424.1875 L 478.125 425.1875 L 534.375 425.1875 L 534.375 424.1875 L 478.125 424.1875 z M 590.625 424.1875 L 590.625 425.1875 L 646.875 425.1875 L 646.875 424.1875 L 590.625 424.1875 z M 703.125 424.1875 L 703.125 425.1875 L 759.375 425.1875 L 759.375 424.1875 L 703.125 424.1875 z M 815.625 424.1875 L 815.625 425.1875 L 871.875 425.1875 L 871.875 424.1875 L 815.625 424.1875 z M 28.125 446.65234 L 28.125 447.65234 L 84.375 447.65234 L 84.375 446.65234 L 28.125 446.65234 z M 140.625 446.65234 L 140.625 447.65234 L 196.875 447.65234 L 196.875 446.65234 L 140.625 446.65234 z M 253.125 446.65234 L 253.125 447.65234 L 309.375 447.65234 L 309.375 446.65234 L 253.125 446.65234 z M 365.625 446.65234 L 365.625 447.65234 L 421.875 447.65234 L 421.875 446.65234 L 365.625 446.65234 z M 478.125 446.65234 L 478.125 447.65234 L 534.375 447.65234 L 534.375 446.65234 L 478.125 446.65234 z M 590.625 446.65234 L 590.625 447.65234 L 646.875 447.65234 L 646.875 446.65234 L 590.625 446.65234 z M 703.125 446.65234 L 703.125 447.65234 L 759.375 447.65234 L 759.375 446.65234 L 703.125 446.65234 z M 815.625 446.65234 L 815.625 447.65234 L 871.875 447.65234 L 871.875 446.65234 L 815.625 446.65234 z M 28.125 449.45898 L 28.125 450.45898 L 84.375 450.45898 L 84.375 449.45898 L 28.125 449.45898 z M 140.625 449.45898 L 140.625 450.45898 L 196.875 450.45898 L 196.875 449.45898 L 140.625 449.45898 z M 253.125 449.45898 L 253.125 450.45898 L 309.375 450.45898 L 309.375 449.45898 L 253.125 449.45898 z M 365.625 449.45898 L 365.625 450.45898 L 421.875 450.45898 L 421.875 449.45898 L 365.625 449.45898 z M 478.125 449.45898 L 478.125 450.45898 L 534.375 450.45898 L 534.375 449.45898 L 478.125 449.45898 z M 590.625 449.45898 L 590.625 450.45898 L 646.875 450.45898 L 646.875 449.45898 L 590.625 449.45898 z M 703.125 449.45898 L 703.125 450.45898 L 759.375 450.45898 L 759.375 449.45898 L 703.125 449.45898 z M 815.625 449.45898 L 815.625 450.45898 L 871.875 450.45898 L 871.875 449.45898 L 815.625 449.45898 z M 28.125 494.38672 L 28.125 495.38672 L 84.375 495.38672 L 84.375 494.38672 L 28.125 494.38672 z M 140.625 494.38672 L 140.625 495.38672 L 196.875 495.38672 L 196.875 494.38672 L 140.625 494.38672 z M 253.125 494.38672 L 253.125 495.38672 L 309.375 495.38672 L 309.375 494.38672 L 253.125 494.38672 z M 365.625 494.38672 L 365.625 495.38672 L 421.875 495.38672 L 421.875 494.38672 L 365.625 494.38672 z M 478.125 494.38672 L 478.125 495.38672 L 534.375 495.38672 L 534.375 494.38672 L 478.125 494.38672 z M 590.625 494.38672 L 590.625 495.38672 L 646.875 495.38672 L 646.875 494.38672 L 590.625 494.38672 z M 703.125 494.38672 L 703.125 495.38672 L 759.375 495.38672 L 759.375 494.38672 L 703.125 494.38672 z M 815.625 494.38672 L 815.625 495.38672 L 871.875 495.38672 L 871.875 494.38672 L 815.625 494.38672 z M 28.125 502.81055 L 28.125 503.81055 L 84.375 503.81055 L 84.375 502.81055 L 28.125 502.81055 z M 140.625 502.81055 L 140.625 503.81055 L 196.875 503.81055 L 196.875 502.81055 L 140.625 502.81055 z M 253.125 502.81055 L 253.125 503.81055 L 309.375 503.81055 L 309.375 502.81055 L 253.125 502.81055 z M 365.625 502.81055 L 365.625 503.81055 L 421.875 503.81055 L 421.875 502.81055 L 365.625 502.81055 z M 478.125 502.81055 L 478.125 503.81055 L 534.375 503.81055 L 534.375 502.81055 L 478.125 502.81055 z M 590.625 502.81055 L 590.625 503.81055 L 646.875 503.81055 L 646.875 502.81055 L 590.625 502.81055 z M 703.125 502.81055 L 703.125 503.81055 L 759.375 503.81055 L 759.375 502.81055 L 703.125 502.81055 z M 815.625 502.81055 L 815.625 503.81055 L 871.875 503.81055 L 871.875 502.81055 L 815.625 502.81055 z M 28.125 525.27539 L 28.125 526.27539 L 84.375 526.27539 L 84.375 525.27539 L 28.125 525.27539 z M 140.625 525.27539 L 140.625 526.27539 L 196.875 526.27539 L 196.875 525.27539 L 140.625 525.27539 z M 253.125 525.27539 L 253.125 526.27539 L 309.375 526.27539 L 309.375 525.27539 L 253.125 525.27539 z M 365.625 525.27539 L 365.625 526.27539 L 421.875 526.27539 L 421.875 525.27539 L 365.625 525.27539 z M 478.125 525.27539 L 478.125 526.27539 L 534.375 526.27539 L 534.375 525.27539 L 478.125 525.27539 z M 590.625 525.27539 L 590.625 526.27539 L 646.875 526.27539 L 646.875 525.27539 L 590.625 525.27539 z M 703.125 525.27539 L 703.125 526.27539 L 759.375 526.27539 L 759.375 525.27539 L 703.125 525.27539 z M 815.625 525.27539 L 815.625 526.27539 L 871.875 526.27539 L 871.875 525.27539 L 815.625 525.27539 z M 28.125 528.08398 L 28.125 529.08398 L 84.375 529.08398 L 84.375 528.08398 L 28.125 528.08398 z M 140.625 528.08398 L 140.625 529.08398 L 196.875 529.08398 L 196.875 528.08398 L 140.625 528.08398 z M 253.125 528.08398 L 253.125 529.08398 L 309.375 529.08398 L 309.375 528.08398 L 253.125 528.08398 z M 365.625 528.08398 L 365.625 529.08398 L 421.875 529.08398 L 421.875 528.08398 L 365.625 528.08398 z M 478.125 528.08398 L 478.125 529.08398 L 534.375 529.08398 L 534.375 528.08398 L 478.125 528.08398 z M 590.625 528.08398 L 590.625 529.08398 L 646.875 529.08398 L 646.875 528.08398 L 590.625 528.08398 z M 703.125 528.08398 L 703.125 529.08398 L 759.375 529.08398 L 759.375 528.08398 L 703.125 528.08398 z M 815.625 528.08398 L 815.625 529.08398 L 871.875 529.08398 L 871.875 528.08398 L 815.625 528.08398 z M 28.125 573.01172 L 28.125 574.01172 L 84.375 574.01172 L 84.375 573.01172 L 28.125 573.01172 z M 140.625 573.01172 L 140.625 574.01172 L 196.875 574.01172 L 196.875 573.01172 L 140.625 573.01172 z M 253.125 573.01172 L 253.125 574.01172 L 309.375 574.01172 L 309.375 573.01172 L 253.125 573.01172 z M 365.625 573.01172 L 365.625 574.01172 L 421.875 574.01172 L 421.875 573.01172 L 365.625 573.01172 z M 478.125 573.01172 L 478.125 574.01172 L 534.375 574.01172 L 534.375 573.01172 L 478.125 573.01172 z M 590.625 573.01172 L 590.625 574.01172 L 646.875 574.01172 L 646.875 573.01172 L 590.625 573.01172 z M 703.125 573.01172 L 703.125 574.01172 L 759.375 574.01172 L 759.375 573.01172 L 703.125 573.01172 z M 815.625 573.01172 L 815.625 574.01172 L 871.875 574.01172 L 871.875 573.01172 L 815.625 573.01172 z M 28.125 581.43555 L 28.125 582.43555 L 84.375 582.43555 L 84.375 581.43555 L 28.125 581.43555 z M 140.625 581.43555 L 140.625 582.43555 L 196.875 582.43555 L 196.875 581.43555 L 140.625 581.43555 z M 253.125 581.43555 L 253.125 582.43555 L 309.375 582.43555 L 309.375 581.43555 L 253.125 581.43555 z M 365.625 581.43555 L 365.625 582.43555 L 421.875 582.43555 L 421.875 581.43555 L 365.625 581.43555 z M 478.125 581.43555 L 478.125 582.43555 L 534.375 582.43555 L 534.375 581.43555 L 478.125 581.43555 z M 590.625 581.43555 L 590.625 582.43555 L 646.875 582.43555 L 646.875 581.43555 L 590.625 581.43555 z M 703.125 581.43555 L 703.125 582.43555 L 759.375 582.43555 L 759.375 581.43555 L 703.125 581.43555 z M 815.625 581.43555 L 815.625 582.43555 L 871.875 582.43555 L 871.875 581.43555 L 815.625 581.43555 z M 28.125 603.90039 L 28.125 604.90039 L 84.375 604.90039 L 84.375 603.90039 L 28.125 603.90039 z M 140.625 603.90039 L 140.625 604.90039 L 196.875 604.90039 L 196.875 603.90039 L 140.625 603.90039 z M 253.125 603.90039 L 253.125 604.90039 L 309.375 604.90039 L 309.375 603.90039 L 253.125 603.90039 z M 365.625 603.90039 L 365.625 604.90039 L 421.875 604.90039 L 421.875 603.90039 L 365.625 603.90039 z M 478.125 603.90039 L 478.125 604.90039 L 534.375 604.90039 L 534.375 603.90039 L 478.125 603.90039 z M 590.625 603.90039 L 590.625 604.90039 L 646.875 604.90039 L 646.875 603.90039 L 590.625 603.90039 z M 703.125 603.90039 L 703.125 604.90039 L 759.375 604.90039 L 759.375 603.90039 L 703.125 603.90039 z M 815.625 603.90039 L 815.625 604.90039 L 871.875 604.90039 L 871.875 603.90039 L 815.625 603.90039 z M 28.125 606.70703 L 28.125 607.70703 L 84.375 607.70703 L 84.375 606.70703 L 28.125 606.70703 z M 140.625 606.70703 L 140.625 607.70703 L 196.875 607.70703 L 196.875 606.70703 L 140.625 606.70703 z M 253.125 606.70703 L 253.125 607.70703 L 309.375 607.70703 L 309.375 606.70703 L 253.125 606.70703 z M 365.625 606.70703 L 365.625 607.70703 L 421.875 607.70703 L 421.875 606.70703 L 365.625 606.70703 z M 478.125 606.70703 L 478.125 607.70703 L 534.375 607.70703 L 534.375 606.70703 L 478.125 606.70703 z M 590.625 606.70703 L 590.625 607.70703 L 646.875 607.70703 L 646.875 606.70703 L 590.625 606.70703 z M 703.125 606.70703 L 703.125 607.70703 L 759.375 607.70703 L 759.375 606.70703 L 703.125 606.70703 z M 815.625 606.70703 L 815.625 607.70703 L 871.875 607.70703 L 871.875 606.70703 L 815.625 606.70703 z M 28.125 651.63477 L 28.125 652.63477 L 84.375 652.63477 L 84.375 651.63477 L 28.125 651.63477 z M 140.625 651.63477 L 140.625 652.63477 L 196.875 652.63477 L 196.875 651.63477 L 140.625 651.63477 z M 253.125 651.63477 L 253.125 652.63477 L 309.375 652.63477 L 309.375 651.63477 L 253.125 651.63477 z M 365.625 651.63477 L 365.625 652.63477 L 421.875 652.63477 L 421.875 651.63477 L 365.625 651.63477 z M 478.125 651.63477 L 478.125 652.63477 L 534.375 652.63477 L 534.375 651.63477 L 478.125 651.63477 z M 590.625 651.63477 L 590.625 652.63477 L 646.875 652.63477 L 646.875 651.63477 L 590.625 651.63477 z M 703.125 651.63477 L 703.125 652.63477 L 759.375 652.63477 L 759.375 651.63477 L 703.125 651.63477 z M 815.625 651.63477 L 815.625 652.63477 L 871.875 652.63477 L 871.875 651.63477 L 815.625 651.63477 z M 28.125 660.05859 L 28.125 661.05859 L 84.375 661.05859 L 84.375 660.05859 L 28.125 660.05859 z M 140.625 660.05859 L 140.625 661.05859 L 196.875 661.05859 L 196.875 660.05859 L 140.625 660.05859 z M 253.125 660.05859 L 253.125 661.05859 L 309.375 661.05859 L 309.375 660.05859 L 253.125 660.05859 z M 365.625 660.05859 L 365.625 661.05859 L 421.875 661.05859 L 421.875 660.05859 L 365.625 660.05859 z M 478.125 660.05859 L 478.125 661.05859 L 534.375 661.05859 L 534.375 660.05859 L 478.125 660.05859 z M 590.625 660.05859 L 590.625 661.05859 L 646.875 661.05859 L 646.875 660.05859 L 590.625 660.05859 z M 703.125 660.05859 L 703.125 661.05859 L 759.375 661.05859 L 759.375 660.05859 L 703.125 660.05859 z M 815.625 660.05859 L 815.625 661.05859 L 871.875 661.05859 L 871.875 660.05859 L 815.625 660.05859 z M 28.125 682.52344 L 28.125 683.52344 L 84.375 683.52344 L 84.375 682.52344 L 28.125 682.52344 z M 140.625 682.52344 L 140.625 683.52344 L 196.875 683.52344 L 196.875 682.52344 L 140.625 682.52344 z M 253.125 682.52344 L 253.125 683.52344 L 309.375 683.52344 L 309.375 682.52344 L 253.125 682.52344 z M 365.625 682.52344 L 365.625 683.52344 L 421.875 683.52344 L 421.875 682.52344 L 365.625 682.52344 z M 478.125 682.52344 L 478.125 683.52344 L 534.375 683.52344 L 534.375 682.52344 L 478.125 682.52344 z M 590.625 682.52344 L 590.625 683.52344 L 646.875 683.52344 L 646.875 682.52344 L 590.625 682.52344 z M 703.125 682.52344 L 703.125 683.52344 L 759.375 683.52344 L 759.375 682.52344 L 703.125 682.52344 z M 815.625 682.52344 L 815.625 683.52344 L 871.875 683.52344 L 871.875 682.52344 L 815.625 682.52344 z M 28.125 685.33203 L 28.125 686.33203 L 84.375 686.33203 L 84.375 685.33203 L 28.125 685.33203 z M 140.625 685.33203 L 140.625 686.33203 L 196.875 686.33203 L 196.875 685.33203 L 140.625 685.33203 z M 253.125 685.33203 L 253.125 686.33203 L 309.375 686.33203 L 309.375 685.33203 L 253.125 685.33203 z M 365.625 685.33203 L 365.625 686.33203 L 421.875 686.33203 L 421.875 685.33203 L 365.625 685.33203 z M 478.125 685.33203 L 478.125 686.33203 L 534.375 686.33203 L 534.375 685.33203 L 478.125 685.33203 z M 590.625 685.33203 L 590.625 686.33203 L 646.875 686.33203 L 646.875 685.33203 L 590.625 685.33203 z M 703.125 685.33203 L 703.125 686.33203 L 759.375 686.33203 L 759.375 685.33203 L 703.125 685.33203 z M 815.625 685.33203 L 815.625 686.33203 L 871.875 686.33203 L 871.875 685.33203 L 815.625 685.33203 z M 28.125 730.25977 L 28.125 731.25977 L 84.375 731.25977 L 84.375 730.25977 L 28.125 730.25977 z M 140.625 730.25977 L 140.625 731.25977 L 196.875 731.25977 L 196.875 730.25977 L 140.625 730.25977 z M 253.125 730.25977 L 253.125 731.25977 L 309.375 731.25977 L 309.375 730.25977 L 253.125 730.25977 z M 365.625 730.25977 L 365.625 731.25977 L 421.875 731.25977 L 421.875 730.25977 L 365.625 730.25977 z M 478.125 730.25977 L 478.125 731.25977 L 534.375 731.25977 L 534.375 730.25977 L 478.125 730.25977 z M 590.625 730.25977 L 590.625 731.25977 L 646.875 731.25977 L 646.875 730.25977 L 590.625 730.25977 z M 703.125 730.25977 L 703.125 731.25977 L 759.375 731.25977 L 759.375 730.25977 L 703.125 730.25977 z M 815.625 730.25977 L 815.625 731.25977 L 871.875 731.25977 L 871.875 730.25977 L 815.625 730.25977 z "
       id="path4525" />
  </g>
</svg>
